<svg xmlns="http://www.w3.org/2000/svg" viewBox="0 0 21.2 15.57"><defs><style>.cls-1{fill:#fff;}.cls-2{fill:#2f1f3f;}</style></defs><title>email_1</title><g id="Layer_2" data-name="Layer 2"><g id="Layer_102" data-name="Layer 102"><rect class="cls-1" x="2.57" y="2.06" width="16.25" height="11.31"/><g id="message_ii" data-name="message ii"><path class="cls-2" d="M3.25,15.57A2.73,2.73,0,0,1,1,14.85,2.49,2.49,0,0,1,.62,14C-.2,11,0,4.82.13,2.88S1.54.78,2.1.72A138.21,138.21,0,0,1,18.82.07a2.56,2.56,0,0,1,2.36,2.46c.11,2.51-.21,11-1.3,12.34C19.38,15.51,5.48,15.57,3.25,15.57ZM5.18,9.84,8.06,7.19,3.28,4.48l-.05,8.3h15V10.66L14.33,7.29,12.11,9.2,8.52,7.41m3.6,1.07L18.4,2.84V2.42l-15,0V3.74M15.1,6.62l3.19,3.52.09-6.68Z"/></g></g></g></svg>