<svg xmlns="http://www.w3.org/2000/svg" viewBox="0 0 20 20"><defs><style>.cls-1{fill:#fff;}</style></defs><title>github</title><g id="Layer_2" data-name="Layer 2"><g id="Layer_107" data-name="Layer 107"><g id="Layer_2-2" data-name="Layer 2"><g id="Capa_1" data-name="Capa 1"><path class="cls-1" d="M10,0A10,10,0,1,0,20,10,10,10,0,0,0,10,0Zm5.94,15.94a8.37,8.37,0,0,1-2.67,1.8q-.38.16-.77.28v-1.5a2,2,0,0,0-.81-1.74,8.75,8.75,0,0,0,.93-.14,7,7,0,0,0,.9-.25,4.45,4.45,0,0,0,.85-.4,3.54,3.54,0,0,0,.72-.6,3.48,3.48,0,0,0,.58-.83A4.55,4.55,0,0,0,16,11.46,7,7,0,0,0,16.18,10a3.66,3.66,0,0,0-1-2.58,3.41,3.41,0,0,0-.1-2.55l-.24,0a2.41,2.41,0,0,0-.91.21,7.12,7.12,0,0,0-1.48.8A9,9,0,0,0,10,5.57a8.81,8.81,0,0,0-2.4.32,8.36,8.36,0,0,0-1-.58A5.05,5.05,0,0,0,5.92,5a2.55,2.55,0,0,0-.52-.1H5.09L5,4.9a3.41,3.41,0,0,0-.1,2.55,3.66,3.66,0,0,0-1,2.58A7,7,0,0,0,4,11.46a4.55,4.55,0,0,0,.37,1.11A3.49,3.49,0,0,0,5,13.4a3.54,3.54,0,0,0,.72.6,4.45,4.45,0,0,0,.85.4,7,7,0,0,0,.9.25,8.75,8.75,0,0,0,.93.14,2,2,0,0,0-.8,1.74v1.53a8.4,8.4,0,1,1,8.33-2.11Z"/></g></g></g></g></svg>