<?xml version="1.0" encoding="utf-8"?>
<!-- Generator: Adobe Illustrator 24.0.0, SVG Export Plug-In . SVG Version: 6.00 Build 0)  -->
<svg version="1.1" id="Layer_1" xmlns="http://www.w3.org/2000/svg" xmlns:xlink="http://www.w3.org/1999/xlink" x="0px" y="0px"
	 viewBox="0 0 15.8 12.7" style="enable-background:new 0 0 15.8 12.7;" xml:space="preserve">
<style type="text/css">
	.st0{fill:#FFFFFF;}
</style>
<title>newsletter-white</title>
<g id="Layer_2_1_">
	<g id="newsletter">
		<path class="st0" d="M15.2,0H0.7C0.3,0,0,0.3,0,0.6V12c0,0.4,0.3,0.7,0.7,0.6h14.5c0.4,0,0.7-0.3,0.7-0.6V0.6
			C15.8,0.3,15.5,0,15.2,0z M1.7,3.8l4,2.9l-4,4.6L1.7,3.8z M2.9,11.2l3.4-3.9l0.9,0.8c0.4,0.4,1,0.4,1.4,0l0.9-0.8l3.4,4H2.9z
			 M14.1,11.2l-4-4.6l4-2.9V11.2z M13.9,3L7.9,7.3L2,3C1.8,2.8,1.7,2.6,1.7,2.4V1.5h12.5v0.8C14.2,2.6,14,2.8,13.9,3z"/>
	</g>
</g>
</svg>
