<svg xmlns="http://www.w3.org/2000/svg" viewBox="0 0 15.84 12.66"><defs><style>.cls-1{fill:#fff;}</style></defs><title>newsletter-white</title><g id="Layer_2" data-name="Layer 2"><g id="newsletter"><path class="cls-1" d="M15.18,0H.66A.66.66,0,0,0,0,.65V12a.66.66,0,0,0,.66.65H15.18a.66.66,0,0,0,.66-.65V.65A.66.66,0,0,0,15.18,0ZM1.11,3.6,5.49,6.8l-4.38,5Zm1.32,8.06,3.68-4.3,1,.87a1.13,1.13,0,0,0,1.57,0l1-.88,3.67,4.31Zm12.26,0-4.36-5,4.36-3.2ZM14.38,2.7,7.93,7.36,1.45,2.69A1,1,0,0,1,1.12,2V1.08h13.6V2A1,1,0,0,1,14.38,2.7Z"/></g></g></svg>